<svg id="Livello_1" data-name="Livello 1" xmlns="http://www.w3.org/2000/svg" viewBox="0 0 80 80"><defs><style>.cls-1{opacity:0.75;}.cls-2{fill:#005ca9;}.cls-3{fill:#3cbff0;opacity:0.9;}.cls-4{fill:#a1daf8;opacity:0.8;}</style></defs><title>Senza titolo-1</title><g class="cls-1"><path class="cls-2" d="M67.48,47.61C67.69,38.38,50.08,30.33,36.4,30s-24,5.25-24.2,14.48,7.72,19,26.09,19.39C52,64.2,67.27,56.85,67.48,47.61Z"/><path class="cls-3" d="M18.39,26.21c-1.13,7.28,12,11.92,22.82,13.58s19.06-5.9,20.18-13.18S56,15,41.46,12.76C30.67,11.1,19.51,18.93,18.39,26.21Z"/><path class="cls-4" d="M49.73,11.22c.58-4.41-3.28-8.77-9.82-9.64s-13,3.53-13.56,7.94,3.44,6.94,12.21,8.1C45.1,18.49,49.14,15.63,49.73,11.22Z"/></g><path class="cls-2" d="M.4,78.4V69.89a.24.24,0,0,1,.07-.17.45.45,0,0,1,.27-.06H2a3.19,3.19,0,0,1,.75.08A1.75,1.75,0,0,1,3.4,70a1.41,1.41,0,0,1,.49.58,2.14,2.14,0,0,1,.19,1,2.75,2.75,0,0,1-.19,1.12,1.68,1.68,0,0,1-.46.64,1.15,1.15,0,0,1-.55.26,1.76,1.76,0,0,1,.47.09,1.29,1.29,0,0,1,.48.27,1.35,1.35,0,0,1,.38.55,2.52,2.52,0,0,1,.14.91,4.6,4.6,0,0,1-.12,1.11,2.68,2.68,0,0,1-.33.84,2.25,2.25,0,0,1-.52.58,2.13,2.13,0,0,1-.65.34,2.57,2.57,0,0,1-.75.1Zm1-5.17h.61a.78.78,0,0,0,.47-.15,1,1,0,0,0,.33-.47A2.47,2.47,0,0,0,3,71.78,1.7,1.7,0,0,0,2.83,71a.67.67,0,0,0-.34-.36A1.13,1.13,0,0,0,2,70.56h-.6Zm0,4.29H2a.89.89,0,0,0,.45-.12,1.1,1.1,0,0,0,.37-.35,2.11,2.11,0,0,0,.25-.62,3.88,3.88,0,0,0,.1-.91,2.61,2.61,0,0,0-.09-.77.93.93,0,0,0-.23-.43.85.85,0,0,0-.37-.18,3.33,3.33,0,0,0-.46,0H1.44Z"/><path class="cls-2" d="M7,78.4V70.12a.66.66,0,0,1,0-.33c0-.06.12-.1.27-.11a6.38,6.38,0,0,1,.71,0V78.2c0,.07,0,.12,0,.14s-.11,0-.25,0Z"/><path class="cls-2" d="M11,78.4V69.94a.37.37,0,0,1,0-.2.44.44,0,0,1,.27-.07H12v7.79h2.15v.75a.19.19,0,0,1-.06.17.32.32,0,0,1-.14,0Z"/><path class="cls-2" d="M16.92,78.43h-.27l-.36,0,2.22-8.6c0-.11.15-.17.39-.17h.25l.22,0,2.24,8.56a.12.12,0,0,1-.06.15.74.74,0,0,1-.38.06h-.25l-.35,0L19.4,73.48c-.07-.28-.13-.57-.19-.86s-.11-.57-.16-.85-.07-.5-.09-.7c0,.2-.05.43-.09.7s-.1.56-.16.85-.13.58-.2.86L17.4,78.23a.24.24,0,0,1-.1.15A.92.92,0,0,1,16.92,78.43Zm.65-2.25v-.93h3v.93Z"/><path class="cls-2" d="M24.05,78.4V69.86c0-.14.07-.2.21-.2l.8.2-.14,1.46a4.58,4.58,0,0,1,0,.49c0,.2,0,.44,0,.69s0,.52,0,.79,0,.54,0,.79,0,.47,0,.66V78.2a.17.17,0,0,1,0,.14s-.11,0-.25,0Zm3.51,0L26.12,75l-.21-.57c-.08-.25-.18-.52-.28-.83l-.3-.93L25,71.77c-.09-.27-.18-.56-.28-.89l-.58-.62.08-.6H25L26.43,73c.06.14.13.34.22.59s.18.54.28.84l.3.91c.1.31.19.59.28.85s.18.54.28.85l.62.73-.1.6Zm.75,0-.8-.2.11-1.67c0-.13,0-.29,0-.49s0-.43,0-.68l0-.75c0-.26,0-.51,0-.75v-4c0-.07,0-.12,0-.14s.11,0,.26,0h.71V78.2C28.52,78.34,28.45,78.4,28.31,78.4Z"/><path class="cls-2" d="M33.38,78.53a2.48,2.48,0,0,1-.68-.09,1.51,1.51,0,0,1-.56-.32,1.88,1.88,0,0,1-.45-.7,5.27,5.27,0,0,1-.29-1.2,15.21,15.21,0,0,1-.1-1.83,12.89,12.89,0,0,1,.15-2.15,5.42,5.42,0,0,1,.39-1.4,2.56,2.56,0,0,1,.57-.82,1.78,1.78,0,0,1,.67-.39,2.74,2.74,0,0,1,.69-.1,1.92,1.92,0,0,1,.71.11.75.75,0,0,1,.36.26.55.55,0,0,1,.1.32,1.27,1.27,0,0,1,0,.34,1.38,1.38,0,0,1-.11.27l-.18-.12-.28-.12a1,1,0,0,0-.35-.06,1.5,1.5,0,0,0-.47.08,1.08,1.08,0,0,0-.44.32,1.88,1.88,0,0,0-.36.65,5.56,5.56,0,0,0-.24,1.1,12.83,12.83,0,0,0-.09,1.66,10.76,10.76,0,0,0,.09,1.55,3.19,3.19,0,0,0,.26.93,1,1,0,0,0,.39.46,1.07,1.07,0,0,0,.51.12,1.85,1.85,0,0,0,.67-.12,1.75,1.75,0,0,0,.48-.26c0,.08.07.18.11.28a1.26,1.26,0,0,1,0,.33.62.62,0,0,1-.2.44,1.24,1.24,0,0,1-.54.33A2.22,2.22,0,0,1,33.38,78.53Z"/><path class="cls-2" d="M37.6,78.4V70.12a.8.8,0,0,1,0-.33c0-.06.12-.1.27-.11a6.68,6.68,0,0,1,.72,0V78.2a.17.17,0,0,1,0,.14.54.54,0,0,1-.26,0Z"/><path class="cls-2" d="M41.75,78.43h-.27l-.37,0,2.23-8.6c0-.11.15-.17.38-.17H44l.22,0,2.24,8.56a.15.15,0,0,1-.06.15.74.74,0,0,1-.38.06h-.26l-.34,0-1.18-4.92L44,72.62c-.06-.29-.11-.57-.16-.85a5.37,5.37,0,0,1-.09-.7c0,.2,0,.43-.1.7s-.09.56-.15.85-.13.58-.2.86l-1.11,4.75a.24.24,0,0,1-.1.15A.92.92,0,0,1,41.75,78.43Zm.65-2.25v-.93h3v.93Z"/><path class="cls-3" d="M48.87,78.4V69.86c0-.09,0-.15.07-.17a.33.33,0,0,1,.15,0h.73l.06,1.6-.26.41c0,.23.05.45.06.64s0,.42,0,.68,0,.51.06.78,0,.54.05.81,0,.51,0,.72l0,2.9c0,.07,0,.12-.05.14a.63.63,0,0,1-.27,0Zm2.21-1.92-.65-2c0-.07-.06-.2-.11-.4s-.12-.43-.2-.71-.16-.54-.24-.83-.15-.55-.22-.8-.15-.53-.24-.83l.4-1.25L51,73.44l.13.43c0,.16.09.31.13.45a5.06,5.06,0,0,0,.14.51q.06-.28.12-.51c0-.14.07-.29.12-.44s.08-.29.12-.41l1.1-3.61.45,1.1c-.08.3-.16.57-.22.81s-.14.5-.22.79-.16.55-.23.82-.15.5-.2.69-.1.33-.13.41l-.66,1.9a.14.14,0,0,1-.14.1Zm1.78,1.92,0-3.05c0-.21,0-.45,0-.72s0-.54,0-.82,0-.56.05-.82,0-.5,0-.71,0-.44.05-.69l-.26-.23v-1.5l.07-.15a.14.14,0,0,1,.13,0h.83V78.2a.17.17,0,0,1,0,.14s-.11,0-.25,0Z"/><path class="cls-3" d="M56.74,78.4V69.86c0-.14.12-.2.22-.2h3c0,.27,0,.47,0,.6a.49.49,0,0,1,0,.25.12.12,0,0,1-.12.06h-2v6.92h2.15c0,.28,0,.49,0,.62a.38.38,0,0,1,0,.24s-.07.05-.13.05Zm.14-4.29v-.93h2.76a6.51,6.51,0,0,1,0,.75c0,.12-.07.18-.16.18Z"/><path class="cls-3" d="M62.61,78.4V69.86c0-.14.07-.2.21-.2l.8.2-.14,1.46a4.58,4.58,0,0,1,0,.49c0,.2,0,.44,0,.69s0,.52,0,.79,0,.54,0,.79,0,.47,0,.66V78.2a.17.17,0,0,1,0,.14s-.11,0-.25,0Zm3.51,0L64.68,75l-.21-.57c-.08-.25-.18-.52-.28-.83l-.3-.93-.29-.87c-.09-.27-.18-.56-.28-.89l-.58-.62.08-.6h.77L65,73c.06.14.13.34.22.59s.18.54.28.84l.3.91c.1.31.19.59.28.85s.17.54.28.85l.62.73-.1.6Zm.75,0-.8-.2.11-1.67c0-.13,0-.29,0-.49s0-.43,0-.68,0-.5,0-.75,0-.51,0-.75v-4c0-.07,0-.12,0-.14s.11,0,.26,0h.71V78.2C67.08,78.34,67,78.4,66.87,78.4Z"/><path class="cls-3" d="M69.54,70.61v-.75c0-.14.07-.2.21-.2H74v.75a.21.21,0,0,1,0,.15.23.23,0,0,1-.16,0Zm1.7,7.79V69.81a.31.31,0,0,1,.2,0H72c.11,0,.18,0,.21,0V78.2c0,.07,0,.12,0,.14a.54.54,0,0,1-.26,0Z"/><path class="cls-3" d="M76.52,78.4V69.86c0-.14.12-.2.22-.2h3c0,.27,0,.47,0,.6a.63.63,0,0,1,0,.25.12.12,0,0,1-.12.06h-2v6.92h2.15c0,.28,0,.49,0,.62s0,.21,0,.24-.07.05-.13.05Zm.14-4.29v-.93h2.76c0,.38,0,.63,0,.75s-.07.18-.16.18Z"/></svg>